HIERARCHY
ROOT hip
{
	OFFSET	0.00  0.00  0.00 
	CHANNELS 6 Xposition Yposition Zposition Xrotation Zrotation Yrotation
	JOINT abdomen
	{
		OFFSET	0.000000 3.402643 0.000000
		CHANNELS 3 Xrotation Zrotation Yrotation
		JOINT chest
		{
			OFFSET	0.000000 8.438564 -0.680529
			CHANNELS 3 Xrotation Zrotation Yrotation
			JOINT neck
			{
				OFFSET	0.000000 10.207942 -0.272212
				CHANNELS 3 Xrotation Zrotation Yrotation
				JOINT head
				{
					OFFSET	0.000000 3.130431 0.000000
					CHANNELS 3 Xrotation Zrotation Yrotation
					End Site
					{
						OFFSET 0.000000 3.130435 0.000000
					}
				}
			}
			JOINT lCollar
			{
				OFFSET	3.402647 6.669187 -0.816635
				CHANNELS 3 Yrotation Zrotation Xrotation
				JOINT lShldr
				{
					OFFSET	3.266541 0.000000 0.000000
					CHANNELS 3 Zrotation Yrotation Xrotation
					JOINT lForeArm
					{
						OFFSET	10.071835 0.000000 0.000000
						CHANNELS 3 Yrotation Zrotation Xrotation
						JOINT lHand
						{
							OFFSET	8.438563 0.000000 0.000000
							CHANNELS 3 Zrotation Yrotation Xrotation
							End Site
							{
								OFFSET 4.083176 0.000000 0.000000
							}
						}
					}
				}
			}
			JOINT rCollar
			{
				OFFSET	-3.538753 6.669187 -0.816635
				CHANNELS 3 Yrotation Zrotation Xrotation
				JOINT rShldr
				{
					OFFSET	-3.130435 0.000000 0.000000
					CHANNELS 3 Zrotation Yrotation Xrotation
					JOINT rForeArm
					{
						OFFSET	-10.207940 0.000000 0.000000
						CHANNELS 3 Yrotation Zrotation Xrotation
						JOINT rHand
						{
							OFFSET	-8.302459 0.000000 0.000000
							CHANNELS 3 Zrotation Yrotation Xrotation
							End Site
							{
								OFFSET -4.083176 0.000000 0.000000
							}
						}
					}
				}
			}
		}
	}
	JOINT lThigh
	{
		OFFSET	5.308129 -1.633274 1.361059
		CHANNELS 3 Xrotation Zrotation Yrotation
		JOINT lShin
		{
			OFFSET	-2.041588 -20.007561 0.000000
			CHANNELS 3 Xrotation Zrotation Yrotation
			JOINT lFoot
			{
				OFFSET	0.000000 -19.190928 -1.224953
				CHANNELS 3 Xrotation Yrotation Zrotation
				End Site
				{
					OFFSET 0.000000 -2.449905 4.627600
				}
			}
		}
	}
	JOINT rThigh
	{
		OFFSET	-5.308129 -1.633274 1.361059
		CHANNELS 3 Xrotation Zrotation Yrotation
		JOINT rShin
		{
			OFFSET	2.041588 -20.007561 0.000000
			CHANNELS 3 Xrotation Zrotation Yrotation
			JOINT rFoot
			{
				OFFSET	0.000000 -19.190928 -1.224953
				CHANNELS 3 Xrotation Yrotation Zrotation
				End Site
				{
					OFFSET 0.000000 -2.449905 4.627600
				}
			}
		}
	}
}
MOTION
Frames:     18
Frame Time: 0.033333
0.000000 44.140511 0.000000 0.000000 0.000000 0.000000 -0.341797 -0.722657 -0.576172 -0.439453 -0.625001 -0.449325 0.000000 0.000000 0.000000 0.000000 0.000000 0.000000 0.273438 -8.007812 -0.009766 0.000000 -4.003906 0.000000 -8.007812 0.000000 0.000000 -7.001954 0.000000 0.000000 0.000000 7.998046 -0.195313 -0.263672 3.994141 -0.449214 7.998046 0.000000 0.000000 6.992188 0.000000 0.000000 -5.148887 4.009006 0.218759 10.663618 -1.042249 -0.215393 -1.590254 0.283883 1.713690 -5.222333 -7.860030 -0.186380 11.062160 3.912798 0.118836 29.298233 -0.543542 -1.544931 
0.064063 43.963593 4.544486 -6.601562 -0.605469 -0.185650 1.845703 -0.507813 -0.429688 15.947264 0.000000 0.000000 1.005859 0.410156 -0.058594 -8.603734 0.000000 0.000000 4.990234 -5.605468 0.224609 -70.048828 -15.009766 18.671875 -22.607422 -9.345702 0.107422 5.966797 -0.068361 0.166018 -5.009766 5.585938 0.214847 71.640625 8.681641 18.554249 22.587891 9.316406 0.117188 -5.957031 0.068359 0.166016 7.215909 5.712546 -0.072771 6.076921 -6.425437 -0.078172 -5.413359 0.953521 0.824613 8.279944 -5.198065 0.146484 3.615257 6.339930 -0.359778 -2.005447 -1.046917 -0.510960 
0.105835 43.987129 9.097865 -11.210938 -1.406250 -0.312500 1.845703 0.869141 -0.341797 11.367188 0.761744 -0.244128 -1.123047 4.228516 -0.136719 -21.152344 -0.771484 -0.058725 8.105469 -4.853516 0.439453 -70.048828 -15.009766 18.671875 -22.744141 -12.344478 0.060366 5.966797 -0.068361 0.166018 -5.009766 5.585938 0.214847 71.640625 8.681641 18.554249 20.976563 4.267820 0.244034 -5.957031 0.068359 0.166016 18.568249 4.715429 -0.316487 -1.195763 -5.911940 0.625327 -3.953337 1.548888 -2.971418 18.747538 -1.517068 0.925129 -1.586973 6.014993 -0.918083 -23.880890 2.644521 0.999443 
0.114236 44.239239 12.845551 -12.646484 -2.294922 -0.332031 1.337891 2.021484 -0.283203 2.060547 1.230469 -0.566406 -2.636719 7.607422 -0.146488 -35.664063 -2.197266 -0.156624 9.169923 -5.517725 0.585946 -70.048828 -15.009766 18.671875 -18.476563 -13.183594 0.031524 5.966797 -0.068361 0.166018 -5.009766 5.585938 0.214847 71.640625 8.681641 18.554249 14.726564 -4.326353 0.351596 -5.957031 0.068359 0.166016 22.534359 4.315729 -0.469530 -1.791181 -5.861065 0.681676 -2.165680 1.617599 -5.813035 23.302061 1.246096 1.713986 -2.220694 5.965783 -1.006538 -37.396633 8.988008 2.041514 
0.098298 44.632248 15.710232 -11.669923 -3.173828 -0.292969 1.171875 2.578125 -0.253906 -4.765625 1.386719 -0.712894 -2.490234 9.443359 -0.078125 -49.785152 -3.798828 -0.274084 9.287109 -6.074382 0.634776 -70.048828 -15.009766 18.671875 -14.511719 -14.003906 0.080488 5.966797 -0.068361 0.166018 -5.009766 5.585938 0.214847 71.640625 8.681641 18.554249 9.091798 -11.806947 0.459023 -5.957031 0.068359 0.166016 23.026846 4.226926 -0.501415 -2.222254 -5.836996 0.721387 0.427415 1.205853 -7.969011 24.636482 3.297128 2.294700 -2.462977 5.951100 -1.086843 -42.765705 18.827585 2.325869 
0.067055 45.078480 17.614592 -9.052735 -3.945313 -0.214844 1.386719 2.675792 -0.234374 -8.964844 1.308594 -0.751733 -1.123047 10.009766 0.039064 -61.142574 -5.117188 -0.391496 9.287109 -6.074382 0.634776 -70.048828 -15.009766 18.671875 -10.859375 -14.804688 0.217339 5.966797 -0.068361 0.166018 -5.009766 5.585938 0.214847 71.640625 8.681641 18.554249 4.042969 -18.251955 0.576172 -5.957031 0.068359 0.166016 20.751940 4.314625 -0.429560 -2.414795 -5.833361 0.750865 2.626176 0.353975 -9.524978 23.482512 4.722739 2.479002 -2.427944 6.006073 -1.108866 -39.494492 32.133156 -0.146060 
0.029542 45.490246 18.481319 -5.556641 -4.511719 -0.117187 2.050781 2.460953 -0.214842 -10.341797 1.093750 -0.693362 1.035156 9.628906 0.185547 -67.363281 -5.673828 -0.489247 9.287109 -6.074382 0.634776 -70.048828 -15.009766 18.671875 -7.490235 -15.585937 0.419922 5.966797 -0.068361 0.166018 -5.009766 5.585938 0.214847 71.640625 8.681641 18.554249 -0.439453 -23.701174 0.687519 -5.957031 0.068359 0.166016 16.488857 4.393406 -0.331853 -2.504440 -5.817647 0.744152 3.796655 -0.694456 -10.776550 20.644327 5.570561 2.337854 -2.455123 5.962325 -1.126385 -28.597576 41.521954 -6.241239 
-0.005212 45.779884 18.233103 -1.943359 -4.755859 -0.020341 3.242188 2.070312 -0.214844 -8.750000 0.820313 -0.585798 3.564453 8.583984 0.341806 -66.083984 -5.000000 -0.537109 9.287109 -6.074382 0.634776 -70.048828 -15.009766 18.671875 -4.394531 -16.347654 0.693359 5.966797 -0.068361 0.166018 -5.009766 5.585938 0.214847 71.640625 8.681641 18.554249 -4.394531 -28.222658 0.800781 -5.957031 0.068359 0.166016 10.920800 4.255372 -0.230155 -2.446954 -5.830012 0.761744 3.772910 -1.856455 -11.858700 16.740065 5.775388 1.952778 -2.453982 5.962791 -1.126484 -21.105528 37.940090 -8.215792 
-0.028169 45.859715 16.792624 1.025391 -4.599623 0.029297 5.029297 1.650391 -0.205078 -4.013672 0.585944 -0.458880 6.035156 7.168095 0.478521 -54.921875 -2.626953 -0.507813 9.287109 -6.074382 0.634776 -70.048828 -15.009766 18.671875 -1.562500 -17.089844 1.035156 5.966797 -0.068361 0.166018 -5.009766 5.585938 0.214847 71.640625 8.681641 18.554249 -7.832032 -31.855467 0.908203 -5.957031 0.068359 0.166016 4.812781 3.719601 -0.139048 -2.426063 -5.826851 0.780133 2.732402 -2.719157 -13.030684 12.420372 5.289241 1.448881 -2.434068 5.959694 -1.135004 -22.660120 26.222086 -3.885377 
-0.030298 45.642063 14.082569 2.597656 -3.935577 0.029295 7.460937 1.337891 -0.195313 4.052734 0.468756 -0.351558 8.027345 5.673961 0.576177 -31.533205 1.914063 -0.380862 9.287109 -6.074382 0.634776 -70.048828 -15.009766 18.671875 1.005859 -17.812500 1.425781 5.966797 -0.068361 0.166018 -5.009766 5.585938 0.214847 71.640625 8.681641 18.554249 -10.800781 -34.658199 1.015625 -5.957031 0.068359 0.166016 -1.218938 2.634614 -0.021124 -2.463422 -5.815689 0.712681 1.603849 -3.009913 -14.219716 8.226725 3.997943 0.919496 -2.386259 5.962778 -1.054255 -27.273426 15.118505 -0.058219 
-0.002566 45.039246 10.025627 1.992188 -2.656266 -0.058594 10.322265 1.230469 -0.185547 14.111328 0.517578 -0.302734 9.101563 4.414179 0.615237 1.542969 8.310546 -0.283203 9.287109 -6.074382 0.634776 -70.048828 -15.009766 18.671875 3.339844 -18.515797 1.874994 5.966797 -0.068361 0.166018 -5.009766 5.585938 0.214847 71.640625 8.681641 18.554249 -13.310547 -36.689453 1.123046 -5.957031 0.068359 0.166016 -6.675153 0.985768 0.291011 -2.345209 -5.842294 0.718771 2.091244 -2.840195 -15.124716 4.559728 1.822419 0.537234 -2.153538 5.966840 -1.042146 -30.841169 7.702877 1.460246 
0.064063 43.963593 4.544486 -1.542969 -0.673828 -0.253906 12.275390 1.181641 -0.214844 18.935547 0.556641 -0.351563 8.857422 3.652344 0.566412 22.011717 13.027345 -0.957067 9.287109 -6.074382 0.634776 -70.048828 -15.009766 18.671875 5.439453 -19.199217 2.363281 5.966797 -0.068361 0.166018 -5.009766 5.585938 0.214847 71.640625 8.681641 18.554249 -15.400392 -37.998051 1.230468 -5.957031 0.068359 0.166016 -10.752855 -1.219878 0.753057 -2.549855 -5.873744 0.732078 7.108705 -1.844045 -15.237254 0.576675 -1.360939 0.179606 0.620920 6.121221 -0.621440 -32.643925 3.262653 1.357371 
0.172694 42.394135 -2.250623 -8.339843 2.021484 -0.575827 12.099608 1.054687 -0.332031 12.314453 0.410156 -0.537109 7.041016 3.603590 0.419922 10.244140 12.861327 -3.017578 9.287109 -6.074382 0.634776 -70.048828 -15.009766 18.671875 7.324219 -19.853909 2.900389 5.966797 -0.068361 0.166018 -5.009766 5.585938 0.214847 71.640625 8.681641 18.554249 -17.089844 -38.642582 1.334224 -5.957031 0.068359 0.166016 -13.234704 -3.884708 1.184610 -2.464520 -5.886100 0.767648 18.191648 0.258666 -14.667337 -11.467395 -6.298497 0.008468 22.284950 7.296723 1.791808 -27.997343 1.520714 -0.074360 
0.302731 40.576744 -9.499288 -16.943357 4.960938 -0.985498 10.302734 0.878906 -0.507813 -2.050781 0.097656 -0.800765 4.257813 4.013722 0.205079 -23.017576 9.130858 -5.887122 9.287109 -6.074382 0.634776 -70.048828 -15.009766 18.671875 8.994141 -20.498541 3.476566 5.966797 -0.068361 0.166018 -5.009766 5.585938 0.214847 71.640625 8.681641 18.554249 -18.408203 -38.681644 1.435547 -5.957031 0.068359 0.166016 -13.970114 -6.502433 1.601681 -2.442239 -5.892790 0.806538 31.539310 2.794820 -14.371857 -16.526222 -11.171069 0.979233 30.339018 7.735523 2.848771 -10.228053 0.609712 -1.169826 
0.427652 38.823997 -16.153551 -25.478514 7.607422 -1.424520 7.802734 0.703125 -0.703125 -17.958984 -0.302734 -1.083984 1.269531 4.521484 -0.029297 -59.414066 4.267578 -8.720812 9.287109 -6.074382 0.634776 -70.048828 -15.009766 18.671875 10.468750 -21.104103 4.072275 5.966797 -0.068361 0.166018 -5.009766 5.585938 0.214847 71.640625 8.681641 18.554249 -19.384766 -38.154297 1.539237 -5.957031 0.068359 0.166016 -13.130839 -8.699272 1.716076 -2.705930 -5.890726 0.898471 41.447651 4.915143 -14.790450 -15.620055 -14.744928 1.996488 27.006584 7.062261 2.356193 11.054358 0.087571 -1.582666 
0.526020 37.382690 -21.374578 -32.431641 9.501954 -1.853907 5.380860 0.595713 -0.859362 -30.341797 -0.742188 -1.337891 -1.250000 4.853516 -0.243318 -84.072266 0.263672 -10.830078 9.287109 -6.074382 0.634776 -70.048828 -15.009766 18.671875 11.757813 -21.699890 4.707044 5.966797 -0.068361 0.166018 -5.009766 5.585938 0.214847 71.640625 8.681641 18.554249 -20.048828 -37.128910 1.630860 -5.957031 0.068359 0.166016 -11.686136 -10.173561 1.654760 -2.758227 -5.888201 0.900617 46.924992 6.155688 -15.294110 -10.641712 -17.645332 1.711710 16.919453 6.733921 1.187918 31.364460 0.485730 -2.328704 
0.596740 36.236458 -25.160002 -37.724609 10.654298 -2.265695 3.183594 0.537115 -0.986320 -38.603516 -1.171875 -1.543168 -3.173828 4.970704 -0.429694 -95.917969 -2.587891 -12.167969 9.287109 -6.074382 0.634776 -70.048828 -15.009766 18.671875 12.871094 -22.265625 5.351563 5.966797 -0.068361 0.166018 -5.009766 5.585938 0.214847 71.640625 8.681641 18.554249 -20.419924 -35.654297 1.728517 -5.957031 0.068359 0.166016 -9.997012 -11.003681 1.452098 -2.874754 -5.877451 0.886188 49.810032 6.811374 -15.473030 -3.533039 -19.300978 0.431849 3.765045 6.179925 -0.239467 49.674046 0.915038 -3.359561 
0.643800 35.303143 -27.716576 -41.630859 11.162109 -2.666101 1.210938 0.527346 -1.093748 -43.320313 -1.562500 -1.699485 -4.492187 4.912109 -0.585110 -97.373047 -4.482422 -12.880860 9.287109 -6.074382 0.634776 -70.048828 -15.009766 18.671875 13.818359 -22.813313 6.015640 5.966797 -0.068361 0.166018 -5.009766 5.585938 0.214847 71.640625 8.681641 18.554249 -20.537109 -33.779293 1.816406 -5.957031 0.068359 0.166016 -8.384883 -11.246477 1.219129 -2.953066 -5.858215 0.927712 51.198898 7.045833 -15.299338 -0.528190 -20.383564 -0.118462 -0.795278 6.001017 -0.718509 59.497032 1.430363 -4.391140 
